<svg version="1.1" xmlns="http://www.w3.org/2000/svg" viewBox="0 0 2048 2048" width="512" height="512">
<path fill="currentColor" d="M 1197.16 208.414 C 1217.27 207.183 1243.58 206.243 1263.36 208.666 C 1467.06 233.616 1569.52 469.599 1449.51 635.472 C 1415.42 682.595 1354.37 729.015 1296.92 738.07 C 1295.01 757.252 1295.81 790.322 1295.8 810.171 L 1295.8 934.129 L 1295.83 1332.59 L 1295.84 1422.08 C 1295.85 1468.93 1297.1 1505.23 1286.38 1551.5 C 1270.86 1619.39 1236.73 1681.61 1187.83 1731.19 C 1118.11 1801.86 1022.82 1841.42 923.548 1840.92 C 907.359 1840.9 883.63 1840.23 867.774 1838.04 C 787.921 1826.37 713.917 1789.39 656.636 1732.55 C 593.8 1668.88 555.252 1585.22 547.69 1496.09 C 545.655 1473.59 546.045 1448.7 546.06 1426.02 L 546.064 1339.95 L 546.166 1099.5 C 546.059 1063.98 544.45 1027.44 549.943 992.453 C 557.853 1012.14 570.569 1027.73 582.515 1045.4 L 619.047 1100.29 L 761.034 1313.34 C 777.936 1338.89 804.681 1372.56 812.826 1400.15 C 798.652 1397.56 773.637 1397.99 758.841 1397.99 L 685.311 1398.08 C 681.923 1422.43 683.323 1441.18 682.828 1464.37 C 679.459 1622.09 837.277 1745.93 989.094 1696.9 C 1032 1683.04 1066.08 1664.01 1096.94 1630.44 C 1128.16 1595.95 1149.15 1553.44 1157.56 1507.69 C 1163.73 1473.48 1162 1424.76 1161.97 1388.99 L 1161.94 1228.21 L 1161.96 926.283 C 1161.96 864.968 1163.1 800.707 1160.73 739.694 C 1124.76 733.266 1077.1 703.815 1050.03 681.039 C 937.359 586.243 926.875 406.698 1024.86 297.6 C 1067.55 250.06 1131.91 213.051 1197.16 208.414 z"/>
<path fill="currentColor" d="M 1214.84 341.741 C 1290.24 334.132 1357.42 389.35 1364.55 464.792 C 1371.68 540.234 1316.04 607.065 1240.56 613.722 C 1165.74 620.319 1099.63 565.28 1092.56 490.508 C 1085.49 415.736 1140.11 349.282 1214.84 341.741 z"/>
</svg>